# xmcd
# Track frame offsets:
# 150
# 12661
# 26829
# 38868
# 58405
# 73055
# 84914
# 98362
# 111278
# 124320
# 140860
# 153111
#
# Disc length: 2221 seconds
# Revision: 0
# Processed by: cddbd v1.4PL0 Copyright (c) Steve Scherf et al.
# Submitted via: VisiTrax 2.9.5.180 - For more info visit www.synapsa.com
#
DISCID=a708ab0c
DTITLE=Curt Ryle - Your old used to be
DYEAR=2001
DGENRE=Country
TTITLE0=Curt Rle - You're old used to be
TTITLE1=Curt Rle - Emptiest arms in the world
TTITLE2=Curt Rle - Sad out of saturday night
TTITLE3=Curt Rle - I wish you're memory would die
TTITLE4=Curt Rle - I can't go home to heaven
TTITLE5=Curt Rle - The one that didn't get away
TTITLE6=Curt Rle - Son of a honky tonk woman
TTITLE7=Curt Rle - Bottom of the fifth
TTITLE8=Curt Rle - Ain't that just like a woman
TTITLE9=Curt Rle - When daddy plows the fields no more
TTITLE10=Curt Rle - Juke box junkie
TTITLE11=Curt Rle - When I had you
EXTD=773.02 Global Records
EXTT0=
EXTT1=
EXTT2=
EXTT3=
EXTT4=
EXTT5=
EXTT6=
EXTT7=
EXTT8=
EXTT9=
EXTT10=
EXTT11=
PLAYORDER=
